<?xml version="1.0" encoding="UTF-8" standalone="no"?>
<!DOCTYPE svg PUBLIC "-//W3C//DTD SVG 1.1//EN"
 "http://www.w3.org/Graphics/SVG/1.1/DTD/svg11.dtd">
<!-- Generated by graphviz version 7.0.4 (20221203.1631)
 -->
<!-- Title: G Pages: 1 -->
<svg width="949pt" height="392pt"
 viewBox="0.00 0.00 949.14 392.00" xmlns="http://www.w3.org/2000/svg" xmlns:xlink="http://www.w3.org/1999/xlink">
<g id="graph0" class="graph" transform="scale(1 1) rotate(0) translate(4 388)">
<title>G</title>
<polygon fill="white" stroke="none" points="-4,4 -4,-388 945.14,-388 945.14,4 -4,4"/>
<!-- 1 -->
<g id="node1" class="node">
<title>1</title>
<ellipse fill="none" stroke="black" cx="375.14" cy="-105" rx="46.29" ry="18"/>
<text text-anchor="middle" x="375.14" y="-101.3" font-family="Times,serif" font-size="14.00">1760Xorg</text>
</g>
<!-- 2 -->
<g id="node2" class="node">
<title>2</title>
<ellipse fill="none" stroke="black" cx="375.14" cy="-18" rx="87.18" ry="18"/>
<text text-anchor="middle" x="375.14" y="-14.3" font-family="Times,serif" font-size="14.00">@/tmp/.X11&#45;unix/X1</text>
</g>
<!-- 1&#45;&gt;2 -->
<g id="edge1" class="edge">
<title>1&#45;&gt;2</title>
<path fill="none" stroke="black" d="M330.81,-99.45C292.31,-94.48 240.79,-85.01 228.14,-69 207.75,-43.19 240.2,-30.62 279.75,-24.54"/>
<polygon fill="black" stroke="black" points="280.12,-28.02 289.56,-23.2 279.17,-21.09 280.12,-28.02"/>
<text text-anchor="middle" x="365.14" y="-57.8" font-family="Times,serif" font-size="14.00">(1.6698004053000305E9,1.669800423224154E9)</text>
</g>
<!-- 2&#45;&gt;1 -->
<g id="edge2" class="edge">
<title>2&#45;&gt;1</title>
<path fill="none" stroke="black" d="M453.7,-26.13C489.51,-32.67 520.31,-45.15 502.14,-69 492.98,-81.03 459.39,-89.97 429.05,-95.81"/>
<polygon fill="black" stroke="black" points="428.77,-92.3 419.56,-97.54 430.03,-99.19 428.77,-92.3"/>
<text text-anchor="middle" x="647.14" y="-57.8" font-family="Times,serif" font-size="14.00">(1.6698004052997808E9,1.6698004232241597E9)</text>
</g>
<!-- 3 -->
<g id="node3" class="node">
<title>3</title>
<ellipse fill="none" stroke="black" cx="375.14" cy="-192" rx="55.79" ry="18"/>
<text text-anchor="middle" x="375.14" y="-188.3" font-family="Times,serif" font-size="14.00">pipe:[35524]</text>
</g>
<!-- 3&#45;&gt;1 -->
<g id="edge3" class="edge">
<title>3&#45;&gt;1</title>
<path fill="none" stroke="black" d="M375.14,-173.8C375.14,-162.58 375.14,-147.67 375.14,-134.69"/>
<polygon fill="black" stroke="black" points="378.64,-134.98 375.14,-124.98 371.64,-134.98 378.64,-134.98"/>
<text text-anchor="middle" x="515.14" y="-144.8" font-family="Times,serif" font-size="14.00">(1.6698004087467566E9,1.6698004229935422E9)</text>
</g>
<!-- 4 -->
<g id="node4" class="node">
<title>4</title>
<ellipse fill="none" stroke="black" cx="375.14" cy="-279" rx="71.49" ry="18"/>
<text text-anchor="middle" x="375.14" y="-275.3" font-family="Times,serif" font-size="14.00">1760InputThread</text>
</g>
<!-- 4&#45;&gt;3 -->
<g id="edge4" class="edge">
<title>4&#45;&gt;3</title>
<path fill="none" stroke="black" d="M375.14,-260.8C375.14,-249.58 375.14,-234.67 375.14,-221.69"/>
<polygon fill="black" stroke="black" points="378.64,-221.98 375.14,-211.98 371.64,-221.98 378.64,-221.98"/>
<text text-anchor="middle" x="515.14" y="-231.8" font-family="Times,serif" font-size="14.00">(1.6698004087466865E9,1.6698004229935315E9)</text>
</g>
<!-- 5 -->
<g id="node5" class="node">
<title>5</title>
<ellipse fill="none" stroke="black" cx="72.14" cy="-366" rx="72.29" ry="18"/>
<text text-anchor="middle" x="72.14" y="-362.3" font-family="Times,serif" font-size="14.00">/dev/input/event0</text>
</g>
<!-- 5&#45;&gt;4 -->
<g id="edge5" class="edge">
<title>5&#45;&gt;4</title>
<path fill="none" stroke="black" d="M74.11,-347.96C76.33,-336.82 81.06,-322.91 91.14,-315 121.52,-291.17 219.71,-283.38 292.16,-280.93"/>
<polygon fill="black" stroke="black" points="292.15,-284.43 302.04,-280.63 291.94,-277.43 292.15,-284.43"/>
<text text-anchor="middle" x="231.14" y="-318.8" font-family="Times,serif" font-size="14.00">(1.6698004087466085E9,1.6698004223130593E9)</text>
</g>
<!-- 6 -->
<g id="node6" class="node">
<title>6</title>
<ellipse fill="none" stroke="black" cx="375.14" cy="-366" rx="72.29" ry="18"/>
<text text-anchor="middle" x="375.14" y="-362.3" font-family="Times,serif" font-size="14.00">/dev/input/event1</text>
</g>
<!-- 6&#45;&gt;4 -->
<g id="edge6" class="edge">
<title>6&#45;&gt;4</title>
<path fill="none" stroke="black" d="M375.14,-347.8C375.14,-336.58 375.14,-321.67 375.14,-308.69"/>
<polygon fill="black" stroke="black" points="378.64,-308.98 375.14,-298.98 371.64,-308.98 378.64,-308.98"/>
<text text-anchor="middle" x="512.14" y="-318.8" font-family="Times,serif" font-size="14.00">(1.669800409061794E9,1.6698004224838471E9)</text>
</g>
<!-- 7 -->
<g id="node7" class="node">
<title>7</title>
<ellipse fill="none" stroke="black" cx="672.14" cy="-366" rx="72.29" ry="18"/>
<text text-anchor="middle" x="672.14" y="-362.3" font-family="Times,serif" font-size="14.00">/dev/input/event2</text>
</g>
<!-- 7&#45;&gt;4 -->
<g id="edge7" class="edge">
<title>7&#45;&gt;4</title>
<path fill="none" stroke="black" d="M669.11,-347.92C666.2,-336.75 660.63,-322.83 650.14,-315 620.56,-292.9 527.62,-284.72 457.92,-281.71"/>
<polygon fill="black" stroke="black" points="458.16,-278.22 448.03,-281.32 457.88,-285.21 458.16,-278.22"/>
<text text-anchor="middle" x="801.14" y="-318.8" font-family="Times,serif" font-size="14.00">(1.6698004139359238E9,1.6698004229935257E9)</text>
</g>
</g>
</svg>
